<svg width="60" height="40" viewBox="0 0 60 40" fill="none" xmlns="http://www.w3.org/2000/svg">
<g clip-path="url(#clip0_2171_4198)">
<path d="M54.375 0.625H5.625C2.86358 0.625 0.625 2.86358 0.625 5.625V34.375C0.625 37.1364 2.86358 39.375 5.625 39.375H54.375C57.1364 39.375 59.375 37.1364 59.375 34.375V5.625C59.375 2.86358 57.1364 0.625 54.375 0.625Z" stroke="#D3D3D3" stroke-width="1.25"/>
<path fill-rule="evenodd" clip-rule="evenodd" d="M19.2125 14.602C18.814 15.0934 18.1764 15.4809 17.5388 15.4256C17.4592 14.7612 17.7713 14.0553 18.1366 13.6193C18.5351 13.1141 19.2324 12.7542 19.7969 12.7266C19.8633 13.4186 19.6043 14.0968 19.2125 14.602ZM25.1233 13.5501V24.3392H26.7305V20.6505H28.9554C30.9876 20.6505 32.4155 19.1972 32.4155 17.0934C32.4155 14.9895 31.0142 13.5501 29.0085 13.5501H25.1233ZM28.5833 14.9619H26.7304V19.2457H28.5767C29.978 19.2457 30.775 18.4637 30.775 17.1004C30.775 15.737 29.978 14.9619 28.5833 14.9619ZM35.3511 24.4223C36.3606 24.4223 37.297 23.8894 37.7221 23.0451H37.7553V24.3392H39.243V18.9689C39.243 17.4118 38.0475 16.4083 36.2078 16.4083C34.501 16.4083 33.2391 17.4256 33.1927 18.8236H34.6405C34.76 18.1592 35.3511 17.7232 36.1614 17.7232C37.1443 17.7232 37.6955 18.2007 37.6955 19.0796V19.6748L35.6898 19.7994C33.8236 19.917 32.8141 20.7129 32.8141 22.097C32.8141 23.4949 33.8568 24.4223 35.3511 24.4223ZM34.3814 22.0554C34.3814 22.7129 34.9259 23.142 35.7827 23.142C36.8719 23.142 37.6954 22.4222 37.6954 21.4118V20.8028L35.9089 20.9205C34.906 20.9827 34.3814 21.3772 34.3814 22.0554ZM41.2287 27.2736C42.796 27.2736 43.5332 26.6507 44.1774 24.7614L47 16.5121H45.3662L43.4734 22.886H43.4402L41.5474 16.5121H39.8672L42.5901 24.367L42.444 24.8445C42.1983 25.6542 41.7998 25.9656 41.0892 25.9656C40.963 25.9656 40.7173 25.9518 40.6177 25.9379V27.2321C40.7106 27.2597 41.1091 27.2736 41.2287 27.2736ZM18.3021 15.9024C18.716 15.733 19.2285 15.5233 19.7902 15.557C20.1489 15.5847 21.1849 15.6954 21.8491 16.7197C21.846 16.722 21.8393 16.7266 21.8293 16.7334C21.665 16.8447 20.6212 17.552 20.6337 18.9481C20.6462 20.6113 21.9463 21.2315 22.1164 21.3127C22.1275 21.318 22.1346 21.3218 22.1346 21.3218C22.1339 21.3241 22.1326 21.3285 22.1307 21.3351C22.0967 21.4495 21.8731 22.2034 21.3642 22.9758C20.8927 23.6956 20.4079 24.4015 19.6375 24.4153C19.2749 24.422 19.0307 24.3121 18.7764 24.1975C18.509 24.0771 18.2303 23.9516 17.7912 23.9516C17.3362 23.9516 17.0449 24.0805 16.7644 24.2045C16.5208 24.3122 16.2854 24.4163 15.9582 24.4291C15.2143 24.4568 14.6498 23.6679 14.1783 22.9481C13.2153 21.4948 12.4781 18.8512 13.4743 17.0657C13.9591 16.1729 14.8424 15.6124 15.7921 15.5985C16.2065 15.5907 16.6016 15.7542 16.9472 15.8973C17.2109 16.0065 17.4458 16.1037 17.6384 16.1037C17.8101 16.1037 18.0356 16.0114 18.3021 15.9024Z" fill="black"/>
</g>
<defs>
<clipPath id="clip0_2171_4198">
<rect width="60" height="40" fill="white"/>
</clipPath>
</defs>
</svg>
