<svg width="62" height="42" viewBox="0 0 62 42" fill="none" xmlns="http://www.w3.org/2000/svg">
<path d="M55 0.625C58.1066 0.625002 60.625 3.1434 60.625 6.25V35C60.625 38.1066 58.1066 40.625 55 40.625H6.25C3.1434 40.625 0.625002 38.1066 0.625 35V6.25C0.625 3.1434 3.1434 0.625 6.25 0.625H55Z" fill="white" stroke="#D3D3D3" stroke-width="1.25"/>
<path d="M26.5084 12.4212H29.5021V29.7545H26.5084V12.4212ZM32.1052 18.2878H35.0989V29.7545H32.1052V18.2878ZM48.6354 29.7545L44.0798 23.6878L48.2449 18.2878H44.6655L40.6306 23.5545V12.4212H37.5719V29.7545H40.6306V23.8211L44.6655 29.7545H48.6354ZM18.829 18.1545C17.8528 18.1545 16.9417 18.4212 16.0957 18.8212V12.4212H13.1021V24.0212C13.1021 27.2878 15.6401 29.8878 18.829 29.8878C22.0179 29.8878 24.556 27.2878 24.556 24.0212C24.556 20.7545 21.9528 18.1545 18.829 18.1545ZM18.829 26.8211C17.3322 26.8211 16.0957 25.5545 16.0957 24.0212C16.0957 22.4878 17.3322 21.2212 18.829 21.2212C20.3259 21.2212 21.5624 22.4878 21.5624 24.0212C21.4973 25.5545 20.3259 26.8211 18.829 26.8211Z" fill="#333333"/>
<path d="M21.7577 17.0878C23.2314 17.0878 24.426 15.864 24.426 14.3544C24.426 12.8448 23.2314 11.6211 21.7577 11.6211C20.2841 11.6211 19.0895 12.8448 19.0895 14.3544C19.0895 15.864 20.2841 17.0878 21.7577 17.0878Z" fill="url(#paint0_radial_2171_4190)"/>
<defs>
<radialGradient id="paint0_radial_2171_4190" cx="0" cy="0" r="1" gradientUnits="userSpaceOnUse" gradientTransform="translate(19.5613 11.4424) scale(8.83062 9.046)">
<stop stop-color="#FF0000"/>
<stop offset="0.495" stop-color="#E83E49"/>
<stop offset="1" stop-color="#FF00FF"/>
</radialGradient>
</defs>
</svg>
