<svg width="60" height="40" viewBox="0 0 60 40" fill="none" xmlns="http://www.w3.org/2000/svg">
<rect width="60" height="40" rx="4" fill="black"/>
<path d="M22.8285 12.7351C22.8394 11.0564 21.4858 9.68675 19.8051 9.67585C18.1244 9.66495 16.7531 11.017 16.7422 12.6956C16.7312 14.3743 18.0849 15.744 19.7656 15.7549C21.4462 15.7658 22.8176 14.4138 22.8285 12.7351Z" fill="url(#paint0_linear_2566_3720)"/>
<path d="M25.2981 10.6505H28.6998V29.9293H25.2981V10.6505Z" fill="white"/>
<path d="M31.7186 17.3022H35.1203V29.9293H31.7186V17.3022Z" fill="white"/>
<path d="M16.454 17.1761C15.3889 17.1746 14.3402 17.4375 13.4022 17.9411V10.6509H10V23.6198C9.99966 24.8946 10.3778 26.1409 11.0867 27.2011C11.7955 28.2612 12.8032 29.0876 13.9822 29.5758C15.1613 30.0639 16.4588 30.1918 17.7107 29.9434C18.9625 29.695 20.1125 29.0813 21.0152 28.18C21.9179 27.2788 22.5328 26.1304 22.782 24.8801C23.0312 23.6298 22.9036 22.3338 22.4154 21.156C21.9272 19.9781 21.1002 18.9713 20.0391 18.2629C18.9779 17.5545 17.7303 17.1763 16.454 17.1761ZM16.454 26.722C15.8398 26.722 15.2394 26.5401 14.7287 26.1993C14.218 25.8585 13.82 25.3741 13.5849 24.8073C13.3499 24.2406 13.2883 23.617 13.4081 23.0153C13.5279 22.4136 13.8236 21.8609 14.2579 21.4271C14.6922 20.9933 15.2455 20.6978 15.8479 20.5781C16.4502 20.4584 17.0746 20.5197 17.6421 20.7544C18.2095 20.9891 18.6946 21.3866 19.0359 21.8967C19.3772 22.4067 19.5594 23.0064 19.5594 23.6198C19.5596 24.0272 19.4794 24.4307 19.3234 24.8071C19.1674 25.1835 18.9387 25.5255 18.6503 25.8136C18.3619 26.1017 18.0195 26.3302 17.6426 26.4861C17.2658 26.642 16.8618 26.7221 16.454 26.722Z" fill="white"/>
<path d="M46.3108 29.9301H50.6927L45.4281 23.1386L50.202 17.303H46.2275L41.5395 23.1751V10.653H38.1369V29.9301H41.5395L41.5369 23.1914L46.3108 29.9301Z" fill="white"/>
<defs>
<linearGradient id="paint0_linear_2566_3720" x1="15.9818" y1="12.6529" x2="27.5205" y2="35.7122" gradientUnits="userSpaceOnUse">
<stop stop-color="#E52F08"/>
<stop offset="1" stop-color="#E94F96"/>
</linearGradient>
</defs>
</svg>
