<svg width="62" height="42" viewBox="0 0 62 42" fill="none" xmlns="http://www.w3.org/2000/svg">
<path d="M55.2314 0.625C58.338 0.625002 60.8564 3.1434 60.8564 6.25V35C60.8564 38.1066 58.338 40.625 55.2314 40.625H6.48145C3.37485 40.625 0.856447 38.1066 0.856445 35V6.25C0.856445 3.1434 3.37484 0.625 6.48145 0.625H55.2314Z" fill="#1D1D1B" stroke="#D3D3D3" stroke-width="1.25"/>
<path d="M26.2397 19.1387V18.9876L29.2797 13.8676H26.5064V12.7387H31.3952V12.8898L28.373 18.0009H31.3064V19.1387H26.2397ZM33.7925 19.272C33.4488 19.272 33.1569 19.2068 32.9169 19.0764C32.6799 18.9431 32.4991 18.7668 32.3747 18.5476C32.2532 18.3253 32.1925 18.0809 32.1925 17.8142C32.1925 17.592 32.2265 17.389 32.2947 17.2053C32.3628 17.0216 32.4725 16.8602 32.6236 16.7209C32.7777 16.5787 32.9836 16.4602 33.2414 16.3653C33.4191 16.3002 33.631 16.2424 33.8769 16.192C34.1228 16.1416 34.4014 16.0942 34.7125 16.0498C35.0236 16.0024 35.3658 15.9505 35.7391 15.8942L35.3036 16.1342C35.3036 15.8498 35.2354 15.6409 35.0991 15.5076C34.9628 15.3742 34.7347 15.3076 34.4147 15.3076C34.2369 15.3076 34.0517 15.3505 33.8591 15.4364C33.6665 15.5224 33.5317 15.675 33.4547 15.8942L32.3614 15.5476C32.4828 15.1505 32.711 14.8276 33.0458 14.5787C33.3806 14.3298 33.8369 14.2053 34.4147 14.2053C34.8384 14.2053 35.2147 14.2705 35.5436 14.4009C35.8725 14.5313 36.1214 14.7564 36.2902 15.0764C36.3851 15.2542 36.4414 15.432 36.4591 15.6098C36.4769 15.7876 36.4858 15.9861 36.4858 16.2053V19.1387H35.428V18.152L35.5791 18.3564C35.3451 18.6794 35.0917 18.9135 34.8191 19.0587C34.5495 19.2009 34.2073 19.272 33.7925 19.272ZM34.0502 18.3209C34.2725 18.3209 34.4591 18.2824 34.6102 18.2053C34.7643 18.1253 34.8858 18.035 34.9747 17.9342C35.0665 17.8335 35.1288 17.749 35.1614 17.6809C35.2236 17.5505 35.2591 17.3994 35.268 17.2276C35.2799 17.0527 35.2858 16.9076 35.2858 16.792L35.6414 16.8809C35.2828 16.9402 34.9925 16.9905 34.7702 17.032C34.548 17.0705 34.3688 17.1061 34.2325 17.1387C34.0962 17.1713 33.9762 17.2068 33.8725 17.2453C33.754 17.2927 33.6577 17.3446 33.5836 17.4009C33.5125 17.4542 33.4591 17.5135 33.4236 17.5787C33.391 17.6439 33.3747 17.7164 33.3747 17.7964C33.3747 17.9061 33.4014 18.0009 33.4547 18.0809C33.511 18.1579 33.5895 18.2172 33.6902 18.2587C33.791 18.3002 33.911 18.3209 34.0502 18.3209ZM10.826 30.272C10.3489 30.272 9.95042 30.1609 9.63042 29.9387C9.31042 29.7164 9.06894 29.4142 8.90598 29.032C8.74598 28.6498 8.66598 28.2187 8.66598 27.7387C8.66598 27.2587 8.74598 26.8276 8.90598 26.4453C9.06598 26.0631 9.30153 25.7609 9.61264 25.5387C9.92376 25.3164 10.3075 25.2053 10.7638 25.2053C11.223 25.2053 11.623 25.315 11.9638 25.5342C12.3045 25.7535 12.5682 26.0542 12.7549 26.4364C12.9445 26.8157 13.0393 27.2498 13.0393 27.7387C13.0393 28.2187 12.946 28.6498 12.7593 29.032C12.5756 29.4142 12.3178 29.7164 11.986 29.9387C11.6541 30.1609 11.2675 30.272 10.826 30.272ZM8.46153 32.272V25.3387H9.5282V28.6276H9.67931V32.272H8.46153ZM10.6304 29.1964C10.8912 29.1964 11.1045 29.1313 11.2704 29.0009C11.4363 28.8705 11.5593 28.6957 11.6393 28.4764C11.7193 28.2542 11.7593 28.0083 11.7593 27.7387C11.7593 27.472 11.7178 27.229 11.6349 27.0098C11.5519 26.7876 11.423 26.6113 11.2482 26.4809C11.0763 26.3476 10.8556 26.2809 10.586 26.2809C10.3341 26.2809 10.1297 26.3416 9.97264 26.4631C9.81857 26.5846 9.70598 26.755 9.63487 26.9742C9.56376 27.1935 9.5282 27.4483 9.5282 27.7387C9.5282 28.029 9.56376 28.2839 9.63487 28.5031C9.70598 28.7224 9.82153 28.8927 9.98153 29.0142C10.1445 29.1357 10.3608 29.1964 10.6304 29.1964ZM16.1773 30.272C15.6943 30.272 15.2706 30.1639 14.9062 29.9476C14.5417 29.7313 14.2573 29.4335 14.0529 29.0542C13.8514 28.672 13.7506 28.2335 13.7506 27.7387C13.7506 27.2379 13.8543 26.7979 14.0617 26.4187C14.2691 26.0364 14.5551 25.7387 14.9195 25.5253C15.284 25.312 15.7032 25.2053 16.1773 25.2053C16.6603 25.2053 17.084 25.3135 17.4484 25.5298C17.8158 25.7461 18.1017 26.0453 18.3062 26.4276C18.5106 26.8068 18.6129 27.2439 18.6129 27.7387C18.6129 28.2364 18.5091 28.6764 18.3017 29.0587C18.0973 29.4379 17.8114 29.7357 17.444 29.952C17.0795 30.1653 16.6573 30.272 16.1773 30.272ZM16.1773 29.1431C16.5654 29.1431 16.8543 29.0127 17.044 28.752C17.2366 28.4883 17.3329 28.1505 17.3329 27.7387C17.3329 27.312 17.2351 26.9713 17.0395 26.7164C16.8469 26.4616 16.5595 26.3342 16.1773 26.3342C15.9136 26.3342 15.6973 26.3935 15.5284 26.512C15.3595 26.6305 15.2336 26.795 15.1506 27.0053C15.0706 27.2157 15.0306 27.4602 15.0306 27.7387C15.0306 28.1683 15.1269 28.5105 15.3195 28.7653C15.5151 29.0172 15.801 29.1431 16.1773 29.1431ZM21.9458 30.272C21.4687 30.272 21.0702 30.1609 20.7502 29.9387C20.4302 29.7164 20.1887 29.4142 20.0258 29.032C19.8658 28.6498 19.7858 28.2187 19.7858 27.7387C19.7858 27.2587 19.8658 26.8276 20.0258 26.4453C20.1858 26.0631 20.4213 25.7609 20.7324 25.5387C21.0435 25.3164 21.4273 25.2053 21.8835 25.2053C22.3428 25.2053 22.7428 25.315 23.0835 25.5342C23.4243 25.7535 23.688 26.0542 23.8747 26.4364C24.0643 26.8157 24.1591 27.2498 24.1591 27.7387C24.1591 28.2187 24.0658 28.6498 23.8791 29.032C23.6954 29.4142 23.4376 29.7164 23.1058 29.9387C22.7739 30.1609 22.3873 30.272 21.9458 30.272ZM19.5813 30.1387V23.7387H20.7991V26.8498H20.648V30.1387H19.5813ZM21.7502 29.1964C22.011 29.1964 22.2243 29.1313 22.3902 29.0009C22.5561 28.8705 22.6791 28.6957 22.7591 28.4764C22.8391 28.2542 22.8791 28.0083 22.8791 27.7387C22.8791 27.472 22.8376 27.229 22.7547 27.0098C22.6717 26.7876 22.5428 26.6113 22.368 26.4809C22.1961 26.3476 21.9754 26.2809 21.7058 26.2809C21.4539 26.2809 21.2495 26.3416 21.0924 26.4631C20.9384 26.5846 20.8258 26.755 20.7547 26.9742C20.6835 27.1935 20.648 27.4483 20.648 27.7387C20.648 28.029 20.6835 28.2839 20.7547 28.5031C20.8258 28.7224 20.9413 28.8927 21.1013 29.0142C21.2643 29.1357 21.4806 29.1964 21.7502 29.1964ZM25.1371 30.1387V25.3387H26.2038V26.512L26.0882 26.3609C26.1504 26.195 26.2334 26.0439 26.3371 25.9076C26.4408 25.7713 26.5682 25.6587 26.7193 25.5698C26.8349 25.4987 26.9608 25.4439 27.0971 25.4053C27.2334 25.3639 27.3741 25.3387 27.5193 25.3298C27.6645 25.3179 27.8097 25.3209 27.9549 25.3387V26.4676C27.8215 26.4261 27.666 26.4127 27.4882 26.4276C27.3134 26.4394 27.1549 26.4794 27.0126 26.5476C26.8704 26.6127 26.7504 26.7002 26.6526 26.8098C26.5549 26.9164 26.4808 27.0439 26.4304 27.192C26.3801 27.3372 26.3549 27.5016 26.3549 27.6853V30.1387H25.1371ZM30.0381 30.272C29.6944 30.272 29.4026 30.2068 29.1626 30.0764C28.9255 29.9431 28.7448 29.7668 28.6204 29.5476C28.4989 29.3253 28.4381 29.0809 28.4381 28.8142C28.4381 28.592 28.4722 28.389 28.5404 28.2053C28.6085 28.0216 28.7181 27.8602 28.8692 27.7209C29.0233 27.5787 29.2292 27.4602 29.487 27.3653C29.6648 27.3002 29.8766 27.2424 30.1226 27.192C30.3685 27.1416 30.647 27.0942 30.9581 27.0498C31.2692 27.0024 31.6115 26.9505 31.9848 26.8942L31.5492 27.1342C31.5492 26.8498 31.4811 26.6409 31.3448 26.5076C31.2085 26.3742 30.9804 26.3076 30.6604 26.3076C30.4826 26.3076 30.2974 26.3505 30.1048 26.4364C29.9122 26.5224 29.7774 26.675 29.7004 26.8942L28.607 26.5476C28.7285 26.1505 28.9566 25.8276 29.2915 25.5787C29.6263 25.3298 30.0826 25.2053 30.6604 25.2053C31.0841 25.2053 31.4604 25.2705 31.7892 25.4009C32.1181 25.5313 32.367 25.7564 32.5359 26.0764C32.6307 26.2542 32.687 26.432 32.7048 26.6098C32.7226 26.7876 32.7315 26.9861 32.7315 27.2053V30.1387H31.6737V29.152L31.8248 29.3564C31.5907 29.6794 31.3374 29.9135 31.0648 30.0587C30.7952 30.2009 30.4529 30.272 30.0381 30.272ZM30.2959 29.3209C30.5181 29.3209 30.7048 29.2824 30.8559 29.2053C31.01 29.1253 31.1315 29.035 31.2204 28.9342C31.3122 28.8335 31.3744 28.749 31.407 28.6809C31.4692 28.5505 31.5048 28.3994 31.5137 28.2276C31.5255 28.0527 31.5315 27.9076 31.5315 27.792L31.887 27.8809C31.5285 27.9402 31.2381 27.9905 31.0159 28.032C30.7937 28.0705 30.6144 28.1061 30.4781 28.1387C30.3418 28.1713 30.2218 28.2068 30.1181 28.2453C29.9996 28.2927 29.9033 28.3446 29.8292 28.4009C29.7581 28.4542 29.7048 28.5135 29.6692 28.5787C29.6366 28.6439 29.6204 28.7164 29.6204 28.7964C29.6204 28.9061 29.647 29.0009 29.7004 29.0809C29.7566 29.1579 29.8352 29.2172 29.9359 29.2587C30.0366 29.3002 30.1566 29.3209 30.2959 29.3209ZM37.1582 30.1387V27.872C37.1582 27.7624 37.1523 27.6231 37.1404 27.4542C37.1286 27.2824 37.0915 27.1105 37.0293 26.9387C36.9671 26.7668 36.8649 26.6231 36.7226 26.5076C36.5834 26.392 36.3849 26.3342 36.1271 26.3342C36.0234 26.3342 35.9123 26.3505 35.7938 26.3831C35.6752 26.4157 35.5641 26.4794 35.4604 26.5742C35.3567 26.6661 35.2708 26.8024 35.2026 26.9831C35.1375 27.1639 35.1049 27.4039 35.1049 27.7031L34.4115 27.3742C34.4115 26.995 34.4886 26.6394 34.6426 26.3076C34.7967 25.9757 35.0278 25.7076 35.336 25.5031C35.6471 25.2987 36.0382 25.1964 36.5093 25.1964C36.8856 25.1964 37.1923 25.2602 37.4293 25.3876C37.6663 25.515 37.85 25.6764 37.9804 25.872C38.1138 26.0676 38.2086 26.272 38.2649 26.4853C38.3212 26.6957 38.3552 26.8883 38.3671 27.0631C38.3789 27.2379 38.3849 27.3653 38.3849 27.4453V30.1387H37.1582ZM33.8782 30.1387V25.3387H34.9538V26.9298H35.1049V30.1387H33.8782ZM39.627 24.672V23.6053H40.8359V24.672H39.627ZM39.627 30.1387V25.3387H40.8359V30.1387H39.627ZM44.3994 30.272C43.9076 30.272 43.4735 30.1668 43.0972 29.9564C42.7239 29.7431 42.4306 29.4513 42.2172 29.0809C42.0069 28.7076 41.9017 28.2809 41.9017 27.8009C41.9017 27.2764 42.0054 26.8202 42.2128 26.432C42.4202 26.0439 42.7061 25.7431 43.0706 25.5298C43.435 25.3135 43.8543 25.2053 44.3283 25.2053C44.832 25.2053 45.2602 25.3239 45.6128 25.5609C45.9654 25.7979 46.2261 26.1313 46.395 26.5609C46.5639 26.9905 46.6231 27.4957 46.5728 28.0764H45.3772V27.632C45.3772 27.1431 45.2987 26.792 45.1417 26.5787C44.9876 26.3624 44.7343 26.2542 44.3817 26.2542C43.9698 26.2542 43.6661 26.3802 43.4706 26.632C43.278 26.8809 43.1817 27.2498 43.1817 27.7387C43.1817 28.1861 43.278 28.5327 43.4706 28.7787C43.6661 29.0216 43.952 29.1431 44.3283 29.1431C44.5654 29.1431 44.7683 29.0913 44.9372 28.9876C45.1061 28.8839 45.235 28.7342 45.3239 28.5387L46.5328 28.8853C46.352 29.3239 46.0661 29.6646 45.675 29.9076C45.2869 30.1505 44.8617 30.272 44.3994 30.272ZM42.8083 28.0764V27.1787H45.9906V28.0764H42.8083ZM53.2239 30.1387V27.3031C53.2239 26.9861 53.1483 26.7402 52.9972 26.5653C52.8491 26.3876 52.6431 26.2987 52.3794 26.2987C52.2106 26.2987 52.0639 26.3387 51.9394 26.4187C51.815 26.4957 51.7172 26.6053 51.6461 26.7476C51.578 26.8868 51.5439 27.0483 51.5439 27.232L51.0372 26.8942C51.0372 26.5653 51.1143 26.275 51.2683 26.0231C51.4254 25.7713 51.6343 25.5757 51.895 25.4364C52.1587 25.2942 52.4506 25.2231 52.7706 25.2231C53.3187 25.2231 53.732 25.3861 54.0106 25.712C54.292 26.035 54.4328 26.4587 54.4328 26.9831V30.1387H53.2239ZM47.4372 30.1387V25.3387H48.5039V26.9298H48.655V30.1387H47.4372ZM50.335 30.1387V27.3031C50.335 26.9861 50.2594 26.7402 50.1083 26.5653C49.9602 26.3876 49.7543 26.2987 49.4906 26.2987C49.2387 26.2987 49.0357 26.3861 48.8817 26.5609C48.7306 26.7327 48.655 26.9564 48.655 27.232L48.1483 26.8764C48.1483 26.5624 48.2269 26.2809 48.3839 26.032C48.5409 25.7831 48.7513 25.5861 49.015 25.4409C49.2817 25.2957 49.5794 25.2231 49.9083 25.2231C50.2846 25.2231 50.5928 25.3031 50.8328 25.4631C51.0757 25.6231 51.255 25.8364 51.3706 26.1031C51.4861 26.3698 51.5439 26.6631 51.5439 26.9831V30.1387H50.335Z" fill="white"/>
</svg>
