<svg width="60" height="40" viewBox="0 0 60 40" fill="none" xmlns="http://www.w3.org/2000/svg">
<g clip-path="url(#clip0_2171_4187)">
<path d="M55 0H5C2.23858 0 0 2.23858 0 5V35C0 37.7614 2.23858 40 5 40H55C57.7614 40 60 37.7614 60 35V5C60 2.23858 57.7614 0 55 0Z" fill="#252525"/>
<path d="M22.4995 32.502C29.4031 32.502 34.9995 26.9055 34.9995 20.002C34.9995 13.0984 29.4031 7.50195 22.4995 7.50195C15.596 7.50195 9.99951 13.0984 9.99951 20.002C9.99951 26.9055 15.596 32.502 22.4995 32.502Z" fill="#EB001B"/>
<path d="M37.4995 32.502C44.4031 32.502 49.9995 26.9055 49.9995 20.002C49.9995 13.0984 44.4031 7.50195 37.4995 7.50195C30.596 7.50195 24.9995 13.0984 24.9995 20.002C24.9995 26.9055 30.596 32.502 37.4995 32.502Z" fill="#F79E1B"/>
<path fill-rule="evenodd" clip-rule="evenodd" d="M29.9995 10C33.0356 12.2805 34.9995 15.9114 34.9995 20.0009C34.9995 24.0905 33.0356 27.7213 29.9995 30.0018C26.9634 27.7213 24.9995 24.0905 24.9995 20.0009C24.9995 15.9114 26.9634 12.2805 29.9995 10Z" fill="#FF5F00"/>
</g>
<defs>
<clipPath id="clip0_2171_4187">
<rect width="60" height="40" fill="white"/>
</clipPath>
</defs>
</svg>
