<svg width="60" height="40" viewBox="0 0 60 40" fill="none" xmlns="http://www.w3.org/2000/svg">
<g clip-path="url(#clip0_2171_4192)">
<g clip-path="url(#clip1_2171_4192)">
<path d="M5.87762 22.9472H7.79624C8.59862 22.9472 9.12763 22.8623 9.38293 22.6925C9.63824 22.5229 9.81842 22.133 9.92366 21.5227C10.047 20.8077 10.0486 20.3555 9.92884 20.1659C9.80922 19.9762 9.46357 19.8814 8.8924 19.8814L8.58323 19.8761H6.40713L5.87762 22.9472ZM4.44434 26.5652L5.71885 19.1719H9.00433C9.81374 19.1719 10.3381 19.3327 10.577 19.654C10.8159 19.9754 10.8594 20.5767 10.7075 21.4576C10.5619 22.3026 10.3093 22.8785 9.94975 23.1854C9.59005 23.4924 8.9881 23.6458 8.14356 23.6458L7.82719 23.6512H5.75615L5.25391 26.5652H4.44434Z" fill="#D04546"/>
<path d="M11.4302 21.3867H12.1661L11.9898 21.9825L12.0028 21.9987C12.3778 21.5113 12.8997 21.2676 13.5691 21.2676C14.4943 21.2676 14.8722 21.7585 14.7029 22.7408L14.636 23.0983H13.9106L13.9487 22.9684C13.983 22.8311 14.0041 22.7391 14.0123 22.692C14.1036 22.1612 13.8691 21.8959 13.3083 21.8959C12.4883 21.8959 11.9884 22.4177 11.8084 23.4612L11.2734 26.5647H10.5376L11.4302 21.3867Z" fill="#D04546"/>
<path d="M15.3457 21.3867H18.9675L18.8405 22.1233L15.1868 25.9365H18.183L18.0747 26.5647H14.2007L14.3248 25.8443L17.9918 22.0151H15.2373L15.3457 21.3867Z" fill="#D04546"/>
<path d="M22.8408 23.5259L22.8774 23.2821C22.9739 22.7224 22.9473 22.3587 22.7976 22.1908C22.6479 22.0229 22.2768 21.9389 21.6845 21.9389C21.0888 21.9389 20.6854 22.0373 20.4746 22.234C20.2636 22.4309 20.101 22.8615 19.9864 23.5259H22.8408ZM22.5868 24.9991H23.3385L23.3111 25.1887C23.2182 25.7268 22.9947 26.1031 22.6405 26.3179C22.2863 26.5328 21.7115 26.6402 20.916 26.6402C19.9908 26.6402 19.4137 26.4661 19.1847 26.1176C18.9557 25.7692 18.9374 25.037 19.1298 23.9214C19.3078 22.8886 19.5727 22.1952 19.9245 21.8413C20.2764 21.4876 20.8763 21.3105 21.7245 21.3105C22.6497 21.3105 23.2294 21.4641 23.4638 21.771C23.6984 22.078 23.7307 22.7243 23.5607 23.71L23.4906 24.1161H19.8742C19.7335 24.9324 19.7286 25.4523 19.8601 25.6761C19.9914 25.9 20.369 26.0119 20.9929 26.0119C21.585 26.0119 21.9788 25.9588 22.1742 25.8521C22.3695 25.7457 22.4978 25.5154 22.5587 25.1615L22.5868 24.9991Z" fill="#D04546"/>
<path d="M25.9472 19.1719L24.6725 26.5652H23.9365L25.2112 19.1719H25.9472Z" fill="#D04546"/>
<path d="M29.6914 23.5259L29.728 23.2821C29.8246 22.7224 29.798 22.3587 29.6482 22.1908C29.4985 22.0229 29.1274 21.9389 28.5352 21.9389C27.9394 21.9389 27.536 22.0373 27.3252 22.234C27.1143 22.4309 26.9516 22.8615 26.837 23.5259H29.6914ZM29.4374 24.9991H30.1891L30.1615 25.1887C30.0688 25.7268 29.8453 26.1031 29.4911 26.3179C29.1369 26.5328 28.5621 26.6402 27.7666 26.6402C26.8416 26.6402 26.2644 26.4661 26.0353 26.1176C25.8063 25.7692 25.7881 25.037 25.9803 23.9214C26.1585 22.8886 26.4233 22.1952 26.7751 21.8413C27.127 21.4876 27.7269 21.3105 28.5751 21.3105C29.5003 21.3105 30.08 21.4641 30.3144 21.771C30.549 22.078 30.5813 22.7243 30.4113 23.71L30.3412 24.1161H26.7248C26.5841 24.9324 26.5792 25.4523 26.7107 25.6761C26.8421 25.9 27.2197 26.0119 27.8435 26.0119C28.4356 26.0119 28.8294 25.9588 29.0248 25.8521C29.2201 25.7457 29.3484 25.5154 29.4093 25.1615L29.4374 24.9991Z" fill="#D04546"/>
<path d="M38.1143 21.3867L35.8129 26.5647H34.7194L34.5424 23.6886L34.4887 22.8112L34.4698 22.3724L34.4456 21.9337H34.4298L34.0788 22.8112L33.7225 23.6886L32.5485 26.5647H31.4343L30.9653 21.3867H31.7381L31.9538 24.252L32.0195 25.151L32.0471 25.6006L32.0749 26.0501H32.0958L32.2731 25.6006L32.4558 25.151L32.8202 24.2573L34.0035 21.3867H35.076L35.2635 24.2628L35.3199 25.1565L35.343 25.6006L35.3654 26.0501H35.3813L35.569 25.6006L35.7517 25.151L36.1274 24.252L37.3258 21.3867H38.1143Z" fill="#D04546"/>
<mask id="mask0_2171_4192" style="mask-type:luminance" maskUnits="userSpaceOnUse" x="37" y="21" width="6" height="8">
<path d="M37.8086 21.3496H42.6055V28.889H37.8086V21.3496Z" fill="white"/>
</mask>
<g mask="url(#mask0_2171_4192)">
<path d="M41.8207 21.3867L40.8552 23.6941L40.3734 24.8422L40.142 25.4218L39.9062 25.996H39.8853L39.7898 25.4218L39.7005 24.8422L39.5096 23.6941L39.1345 21.3867H38.3513L39.3605 27.0136L39.2454 27.2687C38.9349 27.9512 38.5837 28.2817 38.1914 28.26C38.1218 28.2563 38.0383 28.2438 37.9403 28.222L37.832 28.8504C37.9714 28.8756 38.0865 28.8883 38.1777 28.8883C38.6297 28.8883 39.0025 28.7439 39.2958 28.4551C39.5892 28.166 39.9024 27.6352 40.2353 26.8626L42.6038 21.3867H41.8207Z" fill="#D04546"/>
</g>
<path d="M47.316 25.9078L47.1964 26.606H42.1514L42.3874 25.2257C42.5199 24.4522 42.7503 23.9456 43.0787 23.7056C43.4073 23.4658 44.1215 23.2813 45.2214 23.1524C46.1005 23.0522 46.6448 22.9161 46.8539 22.7442C47.0629 22.5723 47.229 22.1265 47.352 21.4068C47.46 20.7766 47.4299 20.3675 47.2621 20.1796C47.094 19.9915 46.6729 19.8976 45.999 19.8976C45.1573 19.8976 44.6131 19.9736 44.3663 20.1258C44.1195 20.278 43.9465 20.6442 43.8473 21.2243L43.7638 21.7721H42.9889L43.0591 21.3908C43.2094 20.5135 43.4864 19.9289 43.8905 19.6371C44.2945 19.3452 45.0286 19.1992 46.0928 19.1992C47.0371 19.1992 47.6451 19.357 47.9161 19.6719C48.1871 19.9872 48.2447 20.6012 48.0883 21.5142C47.938 22.3917 47.6866 22.9779 47.3332 23.2732C46.9797 23.5687 46.2877 23.7683 45.2572 23.8721C44.3516 23.9654 43.7993 24.0942 43.6 24.259C43.4008 24.4236 43.2353 24.8909 43.1035 25.6606L43.0612 25.9078H47.316Z" fill="#B0B3BC"/>
<path d="M52.3198 24.2147L53.0745 19.8051H53.059L49.0502 24.2147H52.3198ZM53.9559 19.2734L53.11 24.2147H54.1571L54.0377 24.9131H52.9905L52.7009 26.6049H51.9108L52.2004 24.9131H48.2793L48.4454 23.9408L52.7344 19.2734H53.9559Z" fill="#B0B3BC"/>
<path d="M21.1074 16.9322C22.8246 15.9136 24.4636 15.1709 26.0164 14.6503L25.7012 12.8242C23.2269 13.6246 21.1149 14.6145 19.3877 15.5912L21.1074 16.9322Z" fill="#B0B3BC"/>
<path d="M40.5803 15.9366L46.6445 12.5284C44.132 11.7155 40.9387 11.1332 36.9266 11.1113C36.9136 11.1113 36.9005 11.1115 36.8873 11.1115L35.4995 13.9714C37.6017 14.4093 39.3145 15.191 40.5803 15.9366Z" fill="#B0B3BC"/>
<path d="M17.8418 16.5234C15.1774 18.2306 13.7822 19.6809 13.7822 19.6809H17.1559C17.9793 19.0243 18.7879 18.4325 19.5814 17.8989L17.8418 16.5234Z" fill="#B0B3BC"/>
<path d="M34.9282 11.1523C32.0172 11.2921 29.382 11.7638 27.0386 12.4192L27.2716 14.2707C29.8158 13.589 32.1063 13.4994 34.1039 13.7407L34.9282 11.1523Z" fill="#B0B3BC"/>
<mask id="mask1_2171_4192" style="mask-type:luminance" maskUnits="userSpaceOnUse" x="42" y="13" width="13" height="5">
<path d="M42.0059 13.8477H54.8149V17.8636H42.0059V13.8477Z" fill="white"/>
</mask>
<g mask="url(#mask1_2171_4192)">
<path d="M49.8749 13.8555L42.0137 16.8855C42.7421 17.4289 43.1247 17.82 43.1247 17.82H54.8148C54.8148 17.82 53.4918 15.7093 49.8749 13.8555Z" fill="#B0B3BC"/>
</g>
</g>
<path d="M54.375 0.625H5.625C2.86358 0.625 0.625 2.86358 0.625 5.625V34.375C0.625 37.1364 2.86358 39.375 5.625 39.375H54.375C57.1364 39.375 59.375 37.1364 59.375 34.375V5.625C59.375 2.86358 57.1364 0.625 54.375 0.625Z" stroke="#D3D3D3" stroke-width="1.25"/>
</g>
<defs>
<clipPath id="clip0_2171_4192">
<rect width="60" height="40" fill="white"/>
</clipPath>
<clipPath id="clip1_2171_4192">
<rect width="50.3704" height="17.7778" fill="white" transform="translate(4.44434 11.1113)"/>
</clipPath>
</defs>
</svg>
