<svg width="60" height="40" viewBox="0 0 60 40" fill="none" xmlns="http://www.w3.org/2000/svg">
<g clip-path="url(#clip0_2171_4186)">
<path d="M54.3745 0.626953H5.62451C2.86309 0.626953 0.624512 2.86553 0.624512 5.62695V34.3769C0.624512 37.1384 2.86309 39.3769 5.62451 39.3769H54.3745C57.1359 39.3769 59.3745 37.1384 59.3745 34.3769V5.62695C59.3745 2.86553 57.1359 0.626953 54.3745 0.626953Z" fill="white" stroke="#D3D3D3" stroke-width="1.6875"/>
<path d="M6.96933 14.7841C5.66148 14.0668 4.16885 13.4899 2.5 13.0895L2.57 12.7778H9.41245C10.3399 12.8103 11.0925 13.0893 11.3374 14.0748L12.8244 21.1645L13.28 23.2999L17.4449 12.7778H21.942L15.2572 28.1919H10.7599L6.96933 14.7841ZM25.2499 28.2082H20.9971L23.6571 12.7778H27.9098L25.2499 28.2082ZM40.667 13.155L40.0886 16.487L39.7039 16.3232C38.9344 16.0112 37.9185 15.6994 36.536 15.7323C34.8569 15.7323 34.1038 16.405 34.0864 17.0617C34.0864 17.7841 34.9973 18.2601 36.4848 18.9662C38.9351 20.066 40.0716 21.412 40.0546 23.1685C40.0202 26.3696 37.115 28.4382 32.6526 28.4382C30.7447 28.4216 28.907 28.0433 27.9095 27.617L28.5046 24.1532L29.0647 24.3997C30.4472 24.9748 31.357 25.2205 33.055 25.2205C34.2794 25.2205 35.5922 24.744 35.609 23.7103C35.609 23.0372 35.0496 22.5443 33.4043 21.7892C31.7945 21.0502 29.6421 19.8193 29.677 17.603C29.6951 14.5991 32.6526 12.498 36.8525 12.498C38.4976 12.498 39.8281 12.8428 40.667 13.155ZM46.3194 22.7418H49.8543C49.6794 21.9703 48.8741 18.2767 48.8741 18.2767L48.5769 16.9471C48.3669 17.5216 47.9996 18.4574 48.0173 18.4244C48.0173 18.4244 46.6696 21.8553 46.3194 22.7418ZM51.569 12.7778L55 28.208H51.0623C51.0623 28.208 50.6769 26.4351 50.5548 25.8934H45.0945C44.9366 26.3035 44.2019 28.208 44.2019 28.208H39.7395L46.0566 14.058C46.4943 13.0566 47.265 12.7778 48.2794 12.7778H51.569Z" fill="#171E6C"/>
</g>
<defs>
<clipPath id="clip0_2171_4186">
<rect width="60" height="40" fill="white"/>
</clipPath>
</defs>
</svg>
